<svg id="svg" version="1.1" xmlns="http://www.w3.org/2000/svg" xmlns:xlink="http://www.w3.org/1999/xlink" width="400" height="400" viewBox="0, 0, 400,400"><g id="svgg"><path id="path0" d="M194.141 100.262 C 148.805 103.510,111.798 135.269,102.568 178.850 L 101.646 183.203 118.746 183.203 L 135.845 183.203 136.911 179.785 C 153.073 127.937,221.376 116.794,253.098 160.829 L 254.286 162.478 243.842 172.836 L 233.398 183.194 266.699 183.198 L 300.000 183.203 300.000 149.905 L 300.000 116.607 289.248 127.346 C 282.150 134.437,278.396 137.926,278.201 137.615 C 276.083 134.243,266.185 124.642,260.080 120.038 C 241.700 106.178,216.610 98.653,194.141 100.262 M100.000 250.095 L 100.000 283.393 110.752 272.654 C 117.635 265.778,121.607 262.079,121.791 262.372 C 126.600 270.025,142.691 283.045,154.975 289.222 C 213.178 318.491,283.989 284.624,297.447 221.081 L 298.354 216.797 281.263 216.797 L 264.173 216.797 262.744 221.104 C 245.750 272.330,178.373 282.865,146.931 239.212 L 145.773 237.603 156.187 227.201 L 166.602 216.798 133.301 216.798 L 100.000 216.797 100.000 250.095 " stroke="none" fill="#ebf3f3" fill-rule="evenodd"></path><path id="path1" d="M189.648 33.439 C 171.562 35.213,160.738 37.383,147.070 41.976 C 80.189 64.448,35.096 125.602,33.314 196.246 C 33.091 205.124,33.199 207.031,34.632 219.336 C 46.624 322.360,149.158 389.363,248.633 359.179 C 311.687 340.046,357.739 284.878,365.368 219.336 C 366.801 207.031,366.909 205.124,366.686 196.246 C 364.413 106.110,291.857 34.385,201.953 33.403 C 196.045 33.338,190.508 33.354,189.648 33.439 M215.003 100.957 C 239.537 104.917,264.421 119.044,277.527 136.453 L 278.650 137.946 289.325 127.276 L 300.000 116.607 300.000 158.303 L 300.000 200.000 266.724 200.000 L 233.448 200.000 234.595 198.756 C 235.226 198.072,238.702 194.424,242.320 190.651 L 248.897 183.789 241.245 183.683 C 237.037 183.625,233.594 183.447,233.594 183.288 C 233.594 183.129,236.575 180.022,240.218 176.383 C 245.734 170.875,246.764 169.671,246.371 169.191 C 239.055 160.262,220.543 151.736,205.372 150.311 C 173.268 147.293,146.101 166.592,136.110 199.512 C 135.995 199.893,132.179 200.000,118.745 200.000 L 101.527 200.000 101.782 198.535 C 102.252 195.840,103.847 189.285,104.657 186.719 C 105.700 183.416,105.765 183.594,103.516 183.594 C 101.174 183.594,101.211 183.807,102.531 177.987 C 111.911 136.635,145.864 105.935,188.151 100.572 C 193.774 99.858,209.604 100.086,215.003 100.957 M166.406 216.696 C 166.406 216.855,162.760 220.634,158.304 225.094 L 150.202 233.203 158.304 233.203 C 162.760 233.203,166.389 233.335,166.369 233.496 C 166.348 233.657,163.371 236.602,159.752 240.039 L 153.174 246.289 154.419 247.595 C 187.053 281.816,247.088 267.200,262.468 221.289 L 264.038 216.602 281.238 216.500 C 297.436 216.404,298.437 216.438,298.434 217.086 C 298.428 218.172,296.606 225.930,295.519 229.491 C 294.976 231.273,294.531 232.837,294.531 232.967 C 294.531 233.097,295.410 233.203,296.484 233.203 C 297.559 233.203,298.438 233.294,298.438 233.405 C 298.437 237.937,292.699 254.710,288.350 262.891 C 254.781 326.029,169.903 335.307,123.407 280.921 L 121.289 278.443 110.645 289.192 L 100.000 299.940 100.000 258.173 L 100.000 216.406 133.203 216.406 C 151.465 216.406,166.406 216.537,166.406 216.696 " stroke="none" fill="#349bdc" fill-rule="evenodd"></path><path id="path2" d="M189.890 134.249 C 165.863 137.950,144.442 156.242,137.365 179.102 C 136.766 181.035,136.206 182.837,136.119 183.105 C 135.997 183.485,132.579 183.594,120.766 183.594 L 105.570 183.594 104.349 187.793 C 103.313 191.357,101.589 198.746,101.569 199.707 C 101.557 200.255,135.944 200.060,136.110 199.512 C 137.964 193.402,139.074 190.410,140.858 186.707 C 159.576 147.865,210.371 137.924,243.503 166.618 L 246.967 169.618 250.437 166.165 C 254.536 162.085,254.373 162.842,251.867 159.531 C 237.385 140.392,213.434 130.622,189.890 134.249 M242.773 190.109 C 239.336 193.684,235.849 197.372,235.025 198.305 L 233.527 200.000 266.764 200.000 L 300.000 200.000 300.000 191.797 L 300.000 183.594 274.512 183.601 L 249.023 183.609 242.773 190.109 M33.393 218.555 C 34.282 286.810,75.838 347.059,139.069 371.768 C 247.862 414.282,365.086 335.349,366.607 218.555 C 366.750 207.576,366.676 207.588,365.422 218.750 C 353.815 322.033,251.076 389.434,151.367 359.179 C 88.094 339.979,41.969 284.518,34.578 218.750 C 33.324 207.588,33.250 207.576,33.393 218.555 M148.065 235.333 L 145.962 237.463 147.021 238.991 C 148.990 241.832,152.804 246.136,153.228 245.994 C 153.774 245.812,166.317 233.882,166.368 233.496 C 166.389 233.335,162.753 233.203,158.287 233.203 L 150.169 233.203 148.065 235.333 M292.779 237.012 C 269.791 295.626,198.214 318.224,144.922 283.693 C 137.870 279.123,128.190 270.542,123.328 264.550 L 121.324 262.080 110.662 272.736 L 100.000 283.393 100.000 291.667 L 100.000 299.940 110.645 289.192 L 121.289 278.443 123.407 280.921 C 169.903 335.307,254.781 326.029,288.350 262.891 C 292.699 254.710,298.438 237.937,298.438 233.405 C 298.438 233.294,297.500 233.203,296.355 233.203 L 294.272 233.203 292.779 237.012 " stroke="none" fill="#2c84bc" fill-rule="evenodd"></path><path id="path3" d="M128.885 129.590 L 127.539 131.055 129.004 129.709 C 130.367 128.456,130.648 128.125,130.350 128.125 C 130.285 128.125,129.626 128.784,128.885 129.590 M199.322 133.483 C 199.916 133.573,200.794 133.571,201.275 133.478 C 201.755 133.385,201.270 133.312,200.195 133.315 C 199.121 133.318,198.728 133.394,199.322 133.483 M151.733 154.395 L 150.586 155.664 151.855 154.517 C 153.039 153.447,153.305 153.125,153.003 153.125 C 152.936 153.125,152.364 153.696,151.733 154.395 M118.750 183.203 L 101.367 183.411 118.629 183.502 C 129.816 183.562,135.976 183.456,136.133 183.203 C 136.266 182.988,136.320 182.854,136.254 182.904 C 136.187 182.954,128.311 183.089,118.750 183.203 M250.098 183.496 C 259.282 183.554,274.312 183.554,283.496 183.496 C 292.681 183.438,285.166 183.390,266.797 183.390 C 248.428 183.390,240.913 183.438,250.098 183.496 M116.504 216.699 C 125.688 216.757,140.718 216.757,149.902 216.699 C 159.087 216.641,151.572 216.593,133.203 216.593 C 114.834 216.593,107.319 216.641,116.504 216.699 M263.927 216.699 C 263.762 216.966,277.164 216.960,292.578 216.687 C 295.908 216.628,290.865 216.541,281.371 216.493 C 271.877 216.445,264.027 216.538,263.927 216.699 M246.277 247.363 L 243.945 249.805 246.387 247.473 C 247.729 246.191,248.828 245.092,248.828 245.032 C 248.828 244.743,248.443 245.095,246.277 247.363 " stroke="none" fill="#72b0da" fill-rule="evenodd"></path><path id="path4" d="M193.848 100.269 C 194.224 100.368,194.839 100.368,195.215 100.269 C 195.591 100.171,195.283 100.091,194.531 100.091 C 193.779 100.091,193.472 100.171,193.848 100.269 M204.199 100.276 C 204.683 100.369,205.474 100.369,205.957 100.276 C 206.440 100.183,206.045 100.106,205.078 100.106 C 204.111 100.106,203.716 100.183,204.199 100.276 M133.374 125.488 L 132.227 126.758 133.496 125.611 C 134.679 124.541,134.945 124.219,134.643 124.219 C 134.576 124.219,134.005 124.790,133.374 125.488 M266.406 125.122 C 266.406 125.189,266.978 125.761,267.676 126.392 L 268.945 127.539 267.798 126.270 C 266.729 125.086,266.406 124.820,266.406 125.122 M272.656 131.372 C 272.656 131.439,273.228 132.011,273.926 132.642 L 275.195 133.789 274.048 132.520 C 272.979 131.336,272.656 131.070,272.656 131.372 M196.582 133.472 C 196.958 133.571,197.573 133.571,197.949 133.472 C 198.325 133.374,198.018 133.294,197.266 133.294 C 196.514 133.294,196.206 133.374,196.582 133.472 M202.641 133.479 C 203.127 133.573,203.830 133.569,204.204 133.472 C 204.577 133.374,204.180 133.297,203.320 133.302 C 202.461 133.306,202.155 133.386,202.641 133.479 M244.531 151.367 C 245.260 152.119,245.944 152.734,246.052 152.734 C 246.159 152.734,245.651 152.119,244.922 151.367 C 244.193 150.615,243.509 150.000,243.401 150.000 C 243.294 150.000,243.802 150.615,244.531 151.367 M248.828 167.773 C 247.879 168.740,247.191 169.531,247.298 169.531 C 247.406 169.531,248.270 168.740,249.219 167.773 C 250.168 166.807,250.856 166.016,250.749 166.016 C 250.641 166.016,249.777 166.807,248.828 167.773 M153.906 247.461 C 155.290 248.857,156.511 250.000,156.618 250.000 C 156.725 250.000,155.681 248.857,154.297 247.461 C 152.913 246.064,151.692 244.922,151.585 244.922 C 151.478 244.922,152.522 246.064,153.906 247.461 M196.582 266.686 C 197.173 266.776,198.140 266.776,198.730 266.686 C 199.321 266.597,198.838 266.523,197.656 266.523 C 196.475 266.523,195.991 266.597,196.582 266.686 M201.074 266.682 C 201.558 266.775,202.349 266.775,202.832 266.682 C 203.315 266.589,202.920 266.513,201.953 266.513 C 200.986 266.513,200.591 266.589,201.074 266.682 M130.859 272.388 C 130.859 272.455,131.431 273.026,132.129 273.657 L 133.398 274.805 132.251 273.535 C 131.182 272.352,130.859 272.086,130.859 272.388 M194.434 299.885 C 194.917 299.978,195.708 299.978,196.191 299.885 C 196.675 299.792,196.279 299.716,195.313 299.716 C 194.346 299.716,193.950 299.792,194.434 299.885 M204.004 299.879 C 204.380 299.977,204.995 299.977,205.371 299.879 C 205.747 299.780,205.439 299.700,204.688 299.700 C 203.936 299.700,203.628 299.780,204.004 299.879 " stroke="none" fill="#8cc4e4" fill-rule="evenodd"></path></g></svg>