<svg id="svg" version="1.1" xmlns="http://www.w3.org/2000/svg" xmlns:xlink="http://www.w3.org/1999/xlink" width="400" height="404.3435340572557" viewBox="0, 0, 400,404.3435340572557"><g id="svgg"><path id="path0" d="M170.201 118.434 C 169.035 120.614,170.774 123.431,172.200 121.670 C 173.149 120.498,173.161 119.167,172.230 118.324 C 171.283 117.467,170.702 117.498,170.201 118.434 M174.790 119.972 C 173.660 121.220,174.298 123.988,175.716 123.988 C 177.175 123.988,177.799 121.013,176.573 119.903 C 175.670 119.086,175.589 119.089,174.790 119.972 M179.551 125.023 C 179.015 125.559,179.261 128.228,179.895 128.754 C 180.960 129.638,181.836 128.715,181.836 126.709 C 181.836 125.004,180.532 124.042,179.551 125.023 M166.160 128.940 C 165.254 130.929,166.940 133.106,168.430 131.870 C 169.123 131.294,169.187 129.069,168.529 128.411 C 167.746 127.628,166.646 127.874,166.160 128.940 M175.561 130.931 C 175.130 132.052,175.308 133.753,175.908 134.251 C 177.259 135.372,178.982 133.105,178.157 131.293 C 177.640 130.160,175.947 129.923,175.561 130.931 M155.262 131.175 C 155.001 131.435,154.788 132.199,154.788 132.873 C 154.788 135.107,156.842 135.925,157.579 133.985 C 158.370 131.905,156.635 129.801,155.262 131.175 M159.120 131.307 C 158.126 132.504,158.633 135.044,159.865 135.044 C 160.896 135.044,161.500 134.242,161.500 132.873 C 161.500 130.929,160.163 130.050,159.120 131.307 M158.835 137.315 C 158.358 138.704,158.955 140.573,159.875 140.573 C 160.896 140.573,161.500 139.766,161.500 138.401 C 161.500 136.169,159.508 135.357,158.835 137.315 M177.769 137.887 C 176.942 138.714,177.180 141.273,178.131 141.782 C 179.233 142.372,180.191 141.461,180.191 139.823 C 180.191 137.873,178.853 136.804,177.769 137.887 M170.267 143.810 C 169.609 144.468,169.673 146.694,170.366 147.270 C 171.234 147.990,172.299 147.601,172.718 146.409 C 173.446 144.340,171.645 142.432,170.267 143.810 M175.033 144.423 C 174.291 146.629,175.651 148.486,177.117 147.270 C 177.810 146.694,177.874 144.468,177.216 143.810 C 176.407 143.001,175.418 143.278,175.033 144.423 M148.842 165.706 C 148.054 167.779,149.603 169.798,151.055 168.592 C 151.749 168.017,151.813 165.791,151.155 165.133 C 150.348 164.327,149.264 164.595,148.842 165.706 M160.156 182.495 C 159.342 183.657,159.360 184.505,160.221 185.568 C 161.579 187.245,163.258 185.202,162.438 182.870 C 161.967 181.532,160.948 181.364,160.156 182.495 M169.714 185.011 C 168.807 187.000,170.494 189.177,171.983 187.941 C 172.677 187.365,172.741 185.140,172.083 184.482 C 171.300 183.699,170.199 183.945,169.714 185.011 M163.554 186.061 C 163.009 186.606,162.932 188.691,163.427 189.472 C 164.157 190.623,165.638 189.835,165.771 188.225 C 165.950 186.050,164.743 184.872,163.554 186.061 M170.201 190.695 C 169.618 191.785,169.697 193.308,170.366 193.864 C 171.855 195.100,173.542 192.923,172.636 190.934 C 172.090 189.736,170.783 189.608,170.201 190.695 M166.070 192.921 C 164.723 194.268,165.815 197.707,167.302 196.800 C 168.490 196.075,168.841 194.491,168.072 193.318 C 167.299 192.138,166.926 192.064,166.070 192.921 " stroke="none" fill="#f7f9fa" fill-rule="evenodd"></path><path id="path1" d="M256.269 0.252 C 255.508 0.338,253.687 0.599,252.221 0.832 L 249.556 1.256 249.556 35.376 L 249.556 69.497 254.294 69.497 L 259.033 69.497 259.033 55.901 L 259.033 42.306 263.277 42.528 C 281.110 43.461,292.578 34.777,292.584 20.336 C 292.587 10.554,287.254 3.742,277.394 0.936 C 275.103 0.283,260.227 -0.198,256.269 0.252 M107.404 0.673 C 107.404 0.950,124.219 67.497,124.620 68.806 C 124.806 69.415,125.407 69.497,129.698 69.497 L 134.564 69.497 134.836 68.411 C 134.985 67.813,137.853 57.285,141.209 45.015 C 144.564 32.744,147.804 20.313,148.408 17.390 L 149.506 12.076 150.185 16.206 C 151.081 21.659,153.540 32.492,158.473 52.715 L 162.518 69.299 167.432 69.299 L 172.346 69.299 181.309 37.710 C 186.239 20.336,190.626 4.832,191.059 3.258 L 191.845 0.395 187.038 0.398 L 182.231 0.401 176.583 22.214 C 171.026 43.675,168.218 55.203,168.215 56.565 C 168.214 56.945,168.036 57.256,167.818 57.256 C 167.601 57.256,167.422 56.856,167.421 56.367 C 167.413 54.137,160.112 21.917,155.116 2.073 L 154.694 0.395 149.805 0.395 C 147.116 0.395,144.916 0.466,144.916 0.553 C 144.916 0.639,142.685 9.124,139.958 19.408 C 134.329 40.633,131.302 52.645,130.892 55.380 C 130.453 58.309,130.212 57.746,128.601 50.048 C 127.771 46.085,124.854 33.292,122.118 21.619 L 117.142 0.395 112.273 0.395 C 109.595 0.395,107.404 0.520,107.404 0.673 M199.803 34.946 L 199.803 69.497 204.541 69.497 L 209.279 69.497 209.279 53.899 L 209.279 38.302 222.310 38.302 L 235.341 38.302 235.341 34.551 L 235.341 30.800 222.310 30.800 L 209.279 30.800 209.279 19.546 L 209.279 8.292 223.297 8.292 L 237.315 8.292 237.315 4.344 L 237.315 0.395 218.559 0.395 L 199.803 0.395 199.803 34.946 M274.204 8.311 C 285.971 11.946,286.255 29.180,274.620 33.534 C 270.551 35.056,262.426 35.571,259.598 34.486 C 259.123 34.304,259.033 32.162,259.033 21.107 L 259.033 7.946 260.711 7.726 C 264.459 7.234,265.288 7.196,268.445 7.369 C 270.255 7.468,272.847 7.892,274.204 8.311 M283.539 70.098 C 283.333 76.688,282.242 85.537,281.466 86.917 C 280.314 88.967,280.170 88.586,279.574 81.935 C 279.155 77.263,278.438 73.542,278.394 75.814 C 278.275 81.916,276.603 93.480,275.670 94.648 L 274.630 95.952 273.146 91.708 L 271.662 87.463 271.859 92.201 C 271.967 94.808,272.156 99.605,272.280 102.863 L 272.505 108.786 268.904 113.327 C 249.279 138.079,234.650 172.497,231.192 202.057 C 230.882 204.709,230.407 207.233,230.137 207.666 C 229.437 208.786,229.400 208.777,235.973 209.090 L 241.936 209.375 242.418 207.451 C 244.041 200.986,248.885 193.737,257.045 185.563 L 263.179 179.417 266.328 178.940 C 269.020 178.532,269.908 178.181,272.448 176.520 L 275.420 174.578 282.614 174.300 C 291.127 173.971,291.331 173.732,283.930 172.757 C 280.878 172.355,278.381 171.922,278.381 171.796 C 278.381 171.022,284.040 169.588,291.614 168.441 C 302.051 166.861,302.348 166.644,294.143 166.594 C 285.585 166.542,285.337 166.467,287.568 164.603 C 289.311 163.147,290.560 162.846,300.691 161.444 C 301.878 161.280,296.160 160.783,292.695 160.750 L 288.648 160.711 288.648 158.382 L 288.648 156.053 285.884 155.775 C 282.580 155.443,282.673 155.894,284.525 149.173 C 286.526 141.915,286.088 141.990,282.976 149.439 C 280.684 154.925,280.105 155.985,279.225 156.304 C 278.652 156.511,277.844 156.818,277.428 156.986 C 276.700 157.280,276.682 157.107,276.938 152.066 C 277.268 145.537,276.974 145.710,275.011 153.198 C 273.587 158.627,273.297 159.338,271.812 161.026 L 270.179 162.883 270.354 158.342 C 270.565 152.852,270.214 153.205,268.704 160.003 C 267.665 164.679,266.968 166.052,266.902 163.550 C 266.813 160.122,266.191 161.336,264.190 168.843 C 262.583 174.873,261.902 176.841,261.265 177.295 C 258.386 179.347,253.945 183.204,249.337 187.654 C 246.417 190.474,244.028 192.711,244.028 192.625 C 244.028 192.538,244.891 189.898,245.946 186.757 C 257.826 151.396,278.509 127.997,304.245 120.804 L 308.193 119.700 305.598 119.673 C 285.633 119.458,263.250 136.251,247.477 163.277 C 244.881 167.726,244.891 167.355,247.584 159.102 C 252.859 142.939,262.426 125.139,272.219 113.267 L 274.361 110.670 277.852 110.389 L 281.343 110.109 282.354 108.457 C 283.247 106.999,284.190 106.367,290.399 103.073 C 294.268 101.021,297.240 99.277,297.003 99.198 C 296.766 99.120,294.316 99.512,291.558 100.071 C 285.799 101.237,286.012 101.266,287.226 99.480 C 287.939 98.430,289.626 97.345,294.542 94.771 C 298.056 92.931,300.766 91.371,300.565 91.304 C 300.363 91.236,297.999 91.707,295.311 92.348 C 292.624 92.990,290.351 93.442,290.262 93.353 C 289.529 92.628,291.624 91.042,297.519 87.858 C 305.056 83.788,305.049 83.646,297.399 85.277 C 294.308 85.937,291.696 86.476,291.595 86.476 C 291.494 86.476,291.412 85.410,291.412 84.107 C 291.412 82.804,291.347 81.737,291.269 81.737 C 291.190 81.737,289.874 82.254,288.344 82.884 L 285.562 84.031 285.350 82.786 C 285.233 82.101,284.922 79.141,284.659 76.209 C 284.216 71.262,283.607 67.940,283.539 70.098 M79.117 81.896 C 64.160 89.927,53.947 102.639,52.358 115.202 C 52.033 117.764,51.811 117.785,57.132 114.764 C 72.934 105.794,82.882 93.166,82.916 82.034 C 82.923 79.764,83.077 79.770,79.117 81.896 M317.084 82.034 C 317.118 93.166,327.066 105.794,342.868 114.764 C 348.189 117.785,347.967 117.764,347.642 115.202 C 346.029 102.450,334.940 88.911,319.952 81.391 C 316.886 79.852,317.077 79.809,317.084 82.034 M44.423 94.121 C 38.083 100.791,33.964 110.976,31.706 125.568 C 30.967 130.341,30.631 155.934,31.298 156.602 C 31.721 157.025,39.803 152.911,43.830 150.223 C 55.500 142.435,65.262 131.291,72.097 117.956 C 74.574 113.124,76.382 108.588,75.832 108.588 C 73.807 108.588,57.315 120.322,42.355 132.406 L 41.466 133.123 42.283 131.221 C 45.244 124.323,47.076 113.028,47.637 98.223 C 47.944 90.117,48.072 90.281,44.423 94.121 M352.361 98.175 C 352.924 113.029,354.753 124.314,357.717 131.221 L 358.534 133.123 357.645 132.406 C 342.685 120.322,326.193 108.588,324.168 108.588 C 323.618 108.588,325.426 113.124,327.903 117.956 C 334.738 131.291,344.500 142.435,356.170 150.223 C 360.197 152.911,368.279 157.025,368.702 156.602 C 369.369 155.934,369.033 130.341,368.294 125.568 C 366.107 111.431,362.096 101.264,356.075 94.594 C 351.950 90.023,352.049 89.927,352.361 98.175 M200.363 100.888 C 202.356 111.762,200.117 118.942,193.287 123.582 C 188.895 126.566,185.675 130.610,185.575 133.268 C 185.559 133.702,185.102 132.558,184.561 130.726 C 180.754 117.846,172.772 111.953,159.131 111.953 C 140.924 111.953,137.728 117.455,138.756 147.035 L 139.110 157.249 134.412 152.521 C 126.945 145.008,120.167 140.192,109.773 135.016 C 99.367 129.834,79.903 123.525,85.101 127.019 C 106.457 141.374,131.832 175.903,146.277 210.267 C 149.079 216.931,148.975 216.797,150.343 215.539 C 156.865 209.543,174.617 207.187,201.452 208.754 L 205.668 209.000 205.273 207.264 C 201.543 190.843,202.308 168.477,207.122 153.180 C 211.475 139.347,212.985 125.760,211.105 117.334 C 210.085 112.758,209.822 112.825,209.554 117.732 C 209.072 126.529,206.648 132.682,201.465 138.263 C 196.387 143.730,194.155 147.027,191.661 152.739 L 190.335 155.775 190.331 153.982 C 190.319 149.802,192.991 143.287,196.639 138.598 C 205.348 127.407,207.652 118.705,204.533 108.786 C 202.962 103.789,199.795 97.793,200.363 100.888 M235.235 102.145 C 235.134 102.323,234.734 103.445,234.346 104.640 C 232.712 109.674,227.807 119.581,219.996 133.629 C 215.368 141.950,212.833 151.222,211.188 165.844 C 210.266 174.033,210.743 206.137,211.802 207.196 C 211.858 207.251,214.805 207.416,218.350 207.562 L 224.797 207.828 224.559 206.876 C 221.552 194.820,225.091 177.833,231.950 171.402 C 233.353 170.087,233.231 169.785,231.492 170.265 C 228.361 171.129,225.269 174.119,221.516 179.911 L 219.501 183.021 219.766 181.046 C 220.789 173.425,227.372 163.462,235.500 157.234 C 238.685 154.793,233.021 156.417,228.849 159.141 C 227.166 160.240,224.206 162.702,222.272 164.612 L 218.756 168.085 218.756 166.793 C 218.756 157.800,226.372 143.622,237.414 132.056 C 240.289 129.044,241.172 127.909,240.471 128.122 C 234.846 129.832,226.720 138.128,220.207 148.811 L 218.164 152.163 218.041 150.697 C 217.754 147.292,220.299 140.085,224.339 132.867 C 230.007 122.738,233.230 114.639,234.950 106.200 C 235.681 102.611,235.781 101.191,235.235 102.145 M172.871 118.954 C 173.966 121.245,171.434 123.560,170.028 121.554 C 168.889 119.927,169.828 117.506,171.505 117.747 C 171.971 117.813,172.585 118.356,172.871 118.954 M177.251 120.609 C 177.729 121.610,177.728 121.911,177.241 122.781 C 176.134 124.761,174.005 123.997,174.005 121.619 C 174.005 119.155,176.226 118.464,177.251 120.609 M21.607 122.287 C 10.966 139.963,9.296 168.354,17.280 195.823 C 18.585 200.314,18.488 200.271,22.014 197.932 C 35.000 189.318,46.446 172.351,53.324 151.518 C 54.910 146.716,54.826 146.643,50.836 149.375 C 43.403 154.464,33.914 164.415,27.601 173.741 L 25.864 176.308 25.848 164.067 C 25.832 151.932,25.541 146.246,24.066 129.157 C 23.177 118.851,23.362 119.370,21.607 122.287 M376.712 120.046 C 376.707 120.158,376.358 124.245,375.936 129.128 C 374.458 146.247,374.168 151.927,374.152 164.067 L 374.136 176.308 372.399 173.741 C 366.086 164.415,356.597 154.464,349.164 149.375 C 345.174 146.643,345.090 146.716,346.676 151.518 C 353.452 172.043,365.028 189.325,377.619 197.711 C 381.440 200.257,381.422 200.264,382.708 195.854 C 388.971 174.374,389.317 149.965,383.593 133.442 C 381.868 128.464,376.776 118.551,376.712 120.046 M181.706 125.037 C 182.656 125.896,182.626 127.739,181.648 128.718 C 179.830 130.536,177.778 127.039,179.528 125.105 C 180.335 124.213,180.781 124.199,181.706 125.037 M168.207 127.934 C 169.961 128.872,169.310 132.675,167.395 132.675 C 165.770 132.675,165.225 129.785,166.558 128.233 C 167.252 127.425,167.255 127.424,168.207 127.934 M178.006 130.385 C 178.267 130.646,178.480 131.524,178.480 132.337 C 178.480 135.146,175.710 135.740,175.121 133.057 C 174.646 130.895,176.655 129.034,178.006 130.385 M157.225 130.960 C 158.124 131.774,158.161 133.759,157.293 134.717 C 156.427 135.674,155.755 135.628,155.008 134.562 C 153.445 132.331,155.339 129.253,157.225 130.960 M161.474 131.565 C 162.153 132.776,161.758 134.479,160.635 135.184 C 158.947 136.244,157.539 132.637,159.008 131.014 C 159.874 130.056,160.735 130.249,161.474 131.565 M161.474 137.093 C 162.153 138.304,161.758 140.008,160.635 140.712 C 158.947 141.772,157.539 138.165,159.008 136.542 C 159.874 135.585,160.735 135.777,161.474 137.093 M179.980 137.887 C 180.562 138.469,180.597 140.357,180.045 141.388 C 179.189 142.988,176.941 141.888,176.913 139.856 C 176.885 137.795,178.714 136.621,179.980 137.887 M172.044 143.255 C 173.490 144.175,173.244 147.409,171.690 147.902 C 169.860 148.483,168.736 144.691,170.381 143.488 C 171.237 142.863,171.392 142.841,172.044 143.255 M177.663 144.201 C 178.343 145.411,177.948 147.115,176.825 147.820 C 175.136 148.880,173.729 145.272,175.198 143.649 C 176.064 142.692,176.925 142.885,177.663 144.201 M151.602 165.524 C 152.282 166.734,151.887 168.438,150.763 169.143 C 149.075 170.203,147.668 166.595,149.137 164.972 C 150.003 164.015,150.863 164.208,151.602 165.524 M1.627 169.939 C -0.390 174.922,-0.527 190.052,1.365 199.013 C 4.347 213.146,11.287 228.038,21.650 242.542 C 25.295 247.644,24.778 247.593,27.683 243.139 C 34.905 232.068,39.882 218.367,39.882 209.555 C 39.882 200.482,41.979 189.563,45.206 181.836 C 45.851 180.292,43.430 182.873,40.287 187.078 C 32.613 197.349,27.482 208.368,25.950 217.868 C 25.358 221.538,25.636 221.806,21.598 213.657 C 17.424 205.233,13.528 198.561,11.166 195.794 C 7.679 191.709,5.492 185.466,2.610 171.372 C 2.099 168.872,2.074 168.835,1.627 169.939 M397.247 171.880 C 395.199 183.427,392.260 191.780,388.834 195.794 C 386.472 198.561,382.576 205.233,378.402 213.657 C 374.364 221.806,374.642 221.538,374.050 217.868 C 372.518 208.368,367.387 197.349,359.713 187.078 C 356.570 182.873,354.149 180.292,354.794 181.836 C 358.021 189.563,360.118 200.482,360.118 209.555 C 360.118 218.367,365.095 232.068,372.317 243.139 C 375.222 247.593,374.705 247.644,378.350 242.542 C 393.058 221.956,399.752 203.861,399.786 184.600 C 399.808 172.364,398.406 165.343,397.247 171.880 M162.672 182.922 C 163.216 183.898,163.216 184.118,162.672 185.091 C 161.495 187.194,159.526 186.535,159.526 184.039 C 159.526 181.494,161.487 180.798,162.672 182.922 M172.337 184.491 C 173.902 186.725,171.844 189.951,170.018 188.126 C 168.744 186.851,169.578 183.613,171.181 183.613 C 171.478 183.613,171.999 184.008,172.337 184.491 M165.855 186.398 C 166.651 187.885,165.828 190.326,164.531 190.326 C 163.706 190.326,162.685 188.981,162.685 187.895 C 162.685 185.674,164.906 184.624,165.855 186.398 M172.358 190.325 C 173.671 191.776,172.988 194.669,171.333 194.669 C 169.558 194.669,168.940 191.630,170.414 190.156 C 171.220 189.350,171.498 189.374,172.358 190.325 M168.190 192.865 C 168.862 193.675,168.551 196.278,167.720 196.799 C 166.825 197.359,165.779 196.737,165.285 195.350 C 164.580 193.372,166.937 191.355,168.190 192.865 M170.621 213.869 C 150.721 216.278,135.630 225.175,128.780 238.535 C 126.487 243.007,126.494 243.014,131.194 241.167 C 147.236 234.864,162.715 233.381,212.550 233.372 C 239.845 233.367,245.055 233.278,246.212 232.794 C 254.822 229.197,254.313 216.442,245.454 213.811 C 242.670 212.985,177.511 213.035,170.621 213.869 M1.185 222.804 C 1.190 242.136,11.359 264.128,27.374 279.438 C 33.815 285.596,47.811 295.907,48.601 295.076 C 48.762 294.907,49.175 292.103,49.520 288.845 C 52.053 264.872,50.915 243.448,46.361 229.361 C 44.753 224.386,44.572 224.316,42.977 228.048 C 38.625 238.234,36.892 254.309,38.831 266.503 C 39.191 268.765,39.422 270.680,39.345 270.757 C 39.267 270.835,36.913 268.273,34.113 265.064 C 26.256 256.060,19.126 248.223,14.255 243.238 C 7.563 236.388,1.974 226.790,1.974 222.145 C 1.974 221.801,1.797 221.520,1.579 221.520 C 1.362 221.520,1.185 222.098,1.185 222.804 M398.026 222.145 C 398.026 226.790,392.437 236.388,385.745 243.238 C 380.874 248.223,373.744 256.060,365.887 265.064 C 363.087 268.273,360.733 270.835,360.655 270.757 C 360.578 270.680,360.809 268.765,361.170 266.503 C 363.105 254.361,361.363 238.205,357.023 228.048 C 355.428 224.316,355.247 224.386,353.639 229.361 C 349.085 243.448,347.947 264.872,350.480 288.845 C 350.825 292.103,351.238 294.907,351.399 295.076 C 351.769 295.465,361.198 289.204,365.635 285.624 C 384.609 270.313,396.402 249.730,398.406 228.430 C 398.917 222.995,398.921 221.520,398.421 221.520 C 398.203 221.520,398.026 221.801,398.026 222.145 M170.188 236.788 C 142.845 238.356,121.223 246.740,112.505 259.154 C 110.123 262.546,109.993 263.370,112.052 262.007 C 115.144 259.961,122.398 258.120,131.885 256.973 C 135.105 256.583,148.075 256.504,189.931 256.615 C 249.542 256.775,245.878 256.928,249.044 254.141 C 254.309 249.506,253.264 240.925,247.027 237.588 L 245.410 236.723 208.885 236.693 C 188.796 236.677,171.382 236.719,170.188 236.788 M148.667 259.879 C 128.071 261.270,112.231 265.422,104.593 271.432 C 101.974 273.493,100.050 275.891,101.309 275.526 C 117.054 270.956,129.020 270.598,144.521 274.232 C 151.921 275.967,160.811 277.677,169.084 278.957 L 175.680 279.977 210.545 279.870 L 245.410 279.763 247.027 278.898 C 254.785 274.746,253.779 262.381,245.512 260.292 C 243.451 259.771,155.804 259.398,148.667 259.879 M59.483 268.579 C 57.230 280.851,58.946 305.495,62.751 315.507 C 63.856 318.416,64.027 318.495,56.970 312.848 C 48.895 306.387,42.551 301.841,37.211 298.689 C 29.114 293.910,27.506 292.774,23.608 289.075 C 21.452 287.030,18.517 283.787,17.084 281.869 C 15.652 279.950,14.400 278.381,14.303 278.381 C 13.270 278.381,16.963 289.817,19.861 295.596 C 30.411 316.632,48.862 330.019,74.796 335.456 C 80.772 336.709,80.194 337.104,79.740 332.072 C 77.785 310.405,71.291 287.778,62.403 271.668 C 59.846 267.034,59.779 266.963,59.483 268.579 M338.454 270.089 C 328.945 287.010,322.306 309.631,320.263 332.072 C 319.805 337.104,319.228 336.709,325.204 335.456 C 351.071 330.034,369.617 316.577,380.139 295.596 C 383.037 289.817,386.730 278.381,385.697 278.381 C 385.600 278.381,384.348 279.950,382.916 281.869 C 381.483 283.787,378.548 287.030,376.392 289.075 C 372.494 292.774,370.886 293.910,362.789 298.689 C 357.449 301.841,351.105 306.387,343.030 312.848 C 335.973 318.495,336.144 318.416,337.249 315.507 C 340.533 306.865,342.131 291.076,341.192 276.556 C 340.537 266.439,340.524 266.407,338.454 270.089 M117.078 273.677 C 110.822 274.416,109.341 275.779,114.405 276.138 C 123.560 276.788,133.680 280.914,139.708 286.455 C 147.980 294.058,162.462 301.633,172.985 303.861 C 177.762 304.872,244.245 304.732,246.565 303.706 C 254.727 300.096,254.153 287.802,245.688 284.918 C 244.109 284.380,239.239 284.304,206.102 284.304 L 168.316 284.304 159.479 281.366 C 145.547 276.734,136.198 274.544,126.555 273.651 C 121.738 273.205,121.058 273.207,117.078 273.677 M80.738 301.347 C 84.494 320.139,91.822 337.986,98.821 345.388 L 100.014 346.650 98.909 346.927 C 97.184 347.360,83.164 346.794,78.776 346.114 C 64.339 343.878,52.045 338.789,43.711 331.600 C 41.007 329.268,40.655 329.371,41.812 332.158 C 52.146 357.022,80.021 367.916,112.734 359.874 C 118.623 358.426,125.962 356.092,125.962 355.667 C 125.962 355.461,123.762 351.959,121.072 347.884 C 107.251 326.946,94.993 311.723,85.592 303.821 C 80.922 299.896,80.394 299.627,80.738 301.347 M316.759 301.882 C 307.231 309.044,293.724 325.469,278.928 347.884 C 276.238 351.959,274.038 355.461,274.038 355.667 C 274.038 356.092,281.377 358.426,287.266 359.874 C 304.683 364.156,322.657 363.094,334.629 357.076 C 344.704 352.011,354.041 342.135,358.188 332.158 C 359.345 329.371,358.993 329.268,356.289 331.600 C 347.955 338.789,335.661 343.878,321.224 346.114 C 316.879 346.787,302.823 347.362,301.125 346.936 L 300.055 346.667 301.683 344.817 C 308.185 337.430,314.599 322.211,318.454 305.025 C 319.693 299.501,319.760 299.626,316.759 301.882 M177.690 306.659 C 177.690 307.192,183.086 315.111,185.616 318.291 C 189.336 322.966,195.910 329.196,199.353 331.307 L 202.227 333.070 201.981 340.869 C 201.744 348.391,201.762 348.667,202.497 348.667 C 204.068 348.667,205.726 348.156,205.726 347.672 C 205.726 346.941,208.036 345.034,209.974 344.165 L 211.649 343.414 211.649 336.431 L 211.649 329.448 213.993 324.744 C 217.470 317.769,219.729 309.965,218.736 308.359 C 218.553 308.062,212.070 307.679,198.768 307.178 C 175.576 306.306,177.690 306.358,177.690 306.659 M224.514 307.862 C 226.849 317.832,235.739 329.670,245.882 336.316 C 247.417 337.322,247.307 336.846,244.394 329.878 C 236.929 312.023,237.114 312.574,239.886 316.442 C 242.029 319.434,242.053 319.398,242.053 313.182 L 242.053 307.706 234.255 307.440 C 229.965 307.294,225.960 307.077,225.354 306.958 C 224.314 306.754,224.266 306.805,224.514 307.862 M148.272 359.968 C 140.607 360.590,134.865 361.818,125.237 364.892 C 108.550 370.220,92.114 373.475,80.955 373.662 C 75.283 373.757,75.299 373.723,79.707 376.449 C 96.163 386.629,110.985 388.994,131.688 384.743 C 137.997 383.448,141.202 382.583,159.329 377.284 C 175.735 372.488,179.858 371.569,184.948 371.571 L 188.154 371.572 182.588 374.076 C 169.165 380.115,157.696 387.656,149.935 395.548 L 147.254 398.274 149.647 401.309 C 152.560 405.004,151.494 405.298,157.663 399.099 C 170.325 386.376,186.431 376.282,198.524 373.491 C 205.827 371.805,228.170 384.864,242.337 399.099 C 248.506 405.298,247.440 405.004,250.353 401.309 L 252.746 398.274 250.065 395.548 C 242.304 387.656,230.835 380.115,217.412 374.076 L 211.846 371.572 215.052 371.571 C 220.142 371.569,224.265 372.488,240.671 377.284 C 258.798 382.583,262.003 383.448,268.312 384.743 C 289.015 388.994,303.837 386.629,320.293 376.449 C 324.701 373.723,324.717 373.757,319.045 373.662 C 307.886 373.475,291.450 370.220,274.763 364.892 C 252.364 357.740,231.914 358.086,204.112 366.088 L 199.931 367.291 196.609 366.290 C 180.914 361.561,160.894 358.943,148.272 359.968 " stroke="none" fill="#0484bc" fill-rule="evenodd"></path><path id="path2" d="" stroke="none" fill="#66b4d6" fill-rule="evenodd"></path><path id="path3" d="" stroke="none" fill="#9ccce4" fill-rule="evenodd"></path><path id="path4" d="" stroke="none" fill="#3ca4cc" fill-rule="evenodd"></path></g></svg>